<svg id="Warstwa_1" data-name="Warstwa 1" xmlns="http://www.w3.org/2000/svg" viewBox="0 0 313 76"><defs><style>.cls-1{fill:#efe5a9;}</style></defs><title>suki_bakes_brass_Obszar roboczy 1</title><path class="cls-1" d="M119.09,31.52c.62-.68.54-2.56.87-3.84-.27-2-4.31-3.1-5.86-3.37,0,0-2.76,1.68-.4,6.06C113.77,31,118.62,32.09,119.09,31.52Z"/><path class="cls-1" d="M312.85,48.85a.9.9,0,0,0-1.13.15c-4,6.78-9.15,8.65-9.69,8.9a71.56,71.56,0,0,1-4.53-8.31c4.23-7.28.11-14.65-4.86-11.6-2.36,1.45-4.71,3.83-1.44,12.63l.95,2.36c.11.24.25.53.42.87-4,9.93-10.65,18.56-15.9,18.21-4.34-.29-8.35-5-7.92-14.74,3.52.62,13.3-3.34,13-14.07-.69-6.43-6.35-6.09-9.52-6.26-7.23,0-10.21,7.7-9.81,20-1.53,10.61-4,13.52-8.14,15.4-2.16.87-4.65,1.62-13-10.64,2.62-1.55,9.63-5.26,10.85-12.53.38-2.28-.09-4.34-2-4.64a11.79,11.79,0,0,1-4.65,7.95,44.81,44.81,0,0,1-8.56,5.18l0-.14c0-1.7-.39-11.4.2-12.86C257.32,23.91,255.1,8.42,251.73,5.31c-1.86-1.75-12.8-6.27-17,7.75-1.53,5-3.69,12.63-5,30.56-.06.06-.3,4.6-.45,7.56-3.19,11-8.23,18.51-12,20.74-.87.51-3.49,1.38-1.82-11.62.73-2.18-.58-4.21-2.61-5.74-1.31-1.31-3.27-.51-4.43,5.58-.58,3.2-3.27,8.94-7,8.94S200,49.17,207.89,41.4c0,0,3.19-2.53,4.08,6.78.12,1.27.58,2.12,1.08,1.86a2.92,2.92,0,0,0,.82-2.74c-.7-4.53-4.09-12.87-12-9.31-1.71.77-3.32,2.67-4.71,5.19-3.85.76-10.94,2.13-10.94,2.13-1.62-2.56-8.3-5.24-8.3-5.24s11.36-3.86,11.36-16.31c0-2-4.51-22.71-35.17-5.19-2.62,1.15-.14,3.44,1,2.16,2.48-2.76,27.74-10.72,28.43,1s-7.66,12.74-15.53,15.36c.54-1.68,3.44-8.42,2.9-10.11-1.15-2.15-3.16-3.44-4.85-5.58-.54-.54-2,0-2.29,3.16a83.28,83.28,0,0,0-4.24,27.62l-.18,1.46a1.37,1.37,0,0,1-.36,1.24c-4.78,5-2.16,20.42,12.8,20.68,16.51-1.24,21-11.93,18.46-22.34a29.62,29.62,0,0,0-2.22-5.39c2.3-.58,5-1.32,7.89-2q-.34.8-.66,1.64l-.87,2.62c-2.68,9.06-2.21,25.53,3.29,25.53s8.07-2.83,10.46-9.06c.73,1.6.7,9.06,8.64,9.06,4.51,0,7.33-2.63,12.11-15.07-.09,3.22-.17,6.65-.21,10.33.14,2.9,8.07,6.6,7.95,1.82-.07-1.82-.4-8.35-.47-10.17,0,0,6,13,16.1,12.84,5.81-.52,9.15-4,11.1-10.18,1.78,7.61,6,9.76,12.57,10.42,5.32.53,11.55-4.1,18.2-18.62.83,1.64,1.69,3.39,2.16,4.65-12.19,8.69-4,13.27-.34,13.76,2.07.3,10,0,9.1-8.11A16.64,16.64,0,0,0,303,60.14c1.77-1.48,6.78-3.83,10-10.08C313,50,313.49,49.25,312.85,48.85ZM274.69,40c1.51-1.07,4.88-1,5.15,4.18A11.11,11.11,0,0,1,270.07,54C271,46.68,272,43.31,274.69,40ZM241.59,15.2c1.08-3.57,4.85-11.45,7.95-8.63,2.15,2.48,6.21,14-12.19,34.36,1.41-15.27,3.51-23.22,4.24-25.71ZM166.91,43.13s1.72-.62,7.25.06,8.25,2.7,8.25,2.7c-.54,0-10.44,3-16.31,4.72.51-2.59-.37-7.44.81-7.44Zm1.35,28.54c-8.32.29-12.41-16.79,16-23.65,1.22,1.55,4.41,23.71-16,23.71ZM295.47,47.83c-.8-1.94-3-4.67-1.6-7.87.8-.62,2.26-2.13,2.94,1.67.27,2.79.2,2.92-1.33,6.25Zm2.77,25.69c-4.08-.3-9.79-4.42,0-9.74,1.38,3.4,5.21,10.19,0,9.79Z"/><path class="cls-1" d="M132,40.17c-.14-.2-1.24-.14-1.24-.14C126,72.3,115.13,72.51,115.13,61.66A168.37,168.37,0,0,1,117,41.38c.4-1.55-.27-4-3.44-6-1.41-.87-3.72.34-4.18,2.22-.07.25-1,24.32-1,24.32l.06.42A10.79,10.79,0,0,1,102.41,69c-2.16.87-4.65,1.62-13-10.64C92,56.8,99,53.1,100.22,45.83c.38-2.28-.09-4.34-2-4.64a11.79,11.79,0,0,1-4.65,7.95A44.82,44.82,0,0,1,85,54.31l0-.14c0-1.28-.23-7.15-.07-10.55a12.68,12.68,0,0,1,.45-2.3C105.58,20.57,103.36,5.08,100,2A10.26,10.26,0,0,0,93.6-.13C89.77-.2,85.25,1.81,82.84,9.72c-1.53,5-3.69,12.63-5,30.56-.09.09-.57,10.06-.57,10.06v.48C74.05,66.52,68.38,72.74,66.14,69,63.34,62.73,65,52,65.24,47.2c-.13-1.72-3.31-4.46-4.77-5-1.21-.45-2.54-1.53-2.8,6.11.32,4.2-2.17,15.38-7.45,15.38-1.51,0-1.51-6.14,1-24.42a6.74,6.74,0,0,0-1.4-3.18c-2.61-2.23-4-1.91-5.14,1.27-.08.38-1,5.68-1,5.68l-.17,1.32c-1.28,1.29-4.64,1.74-7.91,1.86-4.8-12.78-12.79-26.06-12.71-31.49,0-2.22,1.92-2.94,3.78-3.37,5.11-1.16,6.79,1.86,6.79,1.86s-6.21,1.08-6.26,7.17,4,7.25,5.74,7.25c6.52,0,6.37-5.32,6.27-7.81a9.54,9.54,0,0,0-2.48-5.92c3.21-1.63,9.93.75,10.1-.5s-6.4-2.92-11.25-1.05c0,0-5.09-6.61-14.36-1.86-3.88,2.41-8.07,8.24-.83,25.16,1.24,2.72,5.47,10.39,5.47,10.39C-6.77,44.26-9.44,75.61,20.94,75.61c19.79,0,20.37-12.08,16-25.69,2.69-.34,5.23-.81,6.21-1.54-.12,1.7-.29,4.23-.29,5.86,0,8.14-.19,18.13,4,18.87S54.42,68.45,58,60.68c.06.51-.06,11,6.88,12.44.89.16,7.24,1.07,12.14-13-.06,2.36-.11,4.83-.14,7.45.09,1.92,3.6,4.19,5.93,4.12A2,2,0,0,0,85,69.36a6.87,6.87,0,0,0-.23-1.47c-.12-2.65-.35-7.23-.41-8.69,0,0,6,13,16.1,12.84a11.1,11.1,0,0,0,8.92-5.33c.71,3,1.77,5.63,3.31,6.09,9.36,2.43,17-8.75,19.74-30.85A4.64,4.64,0,0,0,132,40.17ZM36.88,20.84c-.24,3.1-1.74,4.84-4.54,4.84-1.17,0-3.28-.74-3.31-4.73s5.81-6,5.81-6S37.11,17.74,36.88,20.84Zm-22,50.64C4.52,70.57,2.09,59.65,6.21,54.91s21.4-3.85,21.4-3.85S31.88,72.32,14.9,71.47ZM97.67,3.25c2.15,2.48,6.16,13.94-12,34.13,1.41-15.15,3.49-23,4.23-25.52.91-3,3.72-9,6.42-9.21A2.06,2.06,0,0,1,97.67,3.25Z"/></svg>